HIERARCHY
ROOT Hips
{
	OFFSET 0.000000 0.000000 0.000000
	CHANNELS 6 Xposition Yposition Zposition Yrotation Xrotation Zrotation
	JOINT Chest
	{
		OFFSET 0.000000 -0.009281 11.569106
		CHANNELS 3 Yrotation Xrotation Zrotation
		JOINT Chest2
		{
			OFFSET -0.000000 0.016865 9.269641
			CHANNELS 3 Yrotation Xrotation Zrotation
			JOINT Chest3
			{
				OFFSET -0.000000 0.000001 8.374491
				CHANNELS 3 Yrotation Xrotation Zrotation
				JOINT Chest4
				{
					OFFSET -0.000000 0.000001 8.374493
					CHANNELS 3 Yrotation Xrotation Zrotation
					JOINT Neck
					{
						OFFSET -0.000000 0.000002 12.152554
						CHANNELS 3 Yrotation Xrotation Zrotation
						JOINT Head
						{
							OFFSET -0.000000 0.040101 7.802319
							CHANNELS 3 Yrotation Xrotation Zrotation
							End Site
							{
								OFFSET -0.000000 0.020947 14.853096
							}
						}
					}
					JOINT RightCollar
					{
						OFFSET 2.894404 0.000001 6.791374
						CHANNELS 3 Yrotation Xrotation Zrotation
						JOINT RightShoulder
						{
							OFFSET 13.574684 0.000001 0.000000
							CHANNELS 3 Yrotation Xrotation Zrotation
							JOINT RightElbow
							{
								OFFSET 23.923903 0.000002 0.000000
								CHANNELS 3 Yrotation Xrotation Zrotation
								JOINT RightWrist
								{
									OFFSET 19.846718 0.012767 0.000000
									CHANNELS 3 Yrotation Xrotation Zrotation
									End Site
									{
										OFFSET 14.973145 0.000001 0.000000
									}
								}
							}
						}
					}
					JOINT LeftCollar
					{
						OFFSET -2.894404 0.000001 6.791374
						CHANNELS 3 Yrotation Xrotation Zrotation
						JOINT LeftShoulder
						{
							OFFSET -13.574684 -0.000001 0.000000
							CHANNELS 3 Yrotation Xrotation Zrotation
							JOINT LeftElbow
							{
								OFFSET -23.923903 -0.000002 0.000000
								CHANNELS 3 Yrotation Xrotation Zrotation
								JOINT LeftWrist
								{
									OFFSET -19.846718 0.012763 0.000000
									CHANNELS 3 Yrotation Xrotation Zrotation
									End Site
									{
										OFFSET -14.973145 -0.000001 0.000000
									}
								}
							}
						}
					}
				}
			}
		}
	}
	JOINT RightHip
	{
		OFFSET 9.469263 0.004643 0.045487
		CHANNELS 3 Yrotation Xrotation Zrotation
		JOINT RightKnee
		{
			OFFSET 0.000000 0.002661 -40.478676
			CHANNELS 3 Yrotation Xrotation Zrotation
			JOINT RightAnkle
			{
				OFFSET 0.000000 0.049106 -35.224068
				CHANNELS 3 Yrotation Xrotation Zrotation
				JOINT RightToe
				{
					OFFSET -0.000001 12.539529 -6.151390
					CHANNELS 3 Yrotation Xrotation Zrotation
					End Site
					{
						OFFSET -0.000001 5.044994 -1.291870
					}
				}
			}
		}
	}
	JOINT LeftHip
	{
		OFFSET -9.469263 0.004641 0.045487
		CHANNELS 3 Yrotation Xrotation Zrotation
		JOINT LeftKnee
		{
			OFFSET 0.000000 0.002661 -40.478676
			CHANNELS 3 Yrotation Xrotation Zrotation
			JOINT LeftAnkle
			{
				OFFSET 0.000000 0.049106 -35.224068
				CHANNELS 3 Yrotation Xrotation Zrotation
				JOINT LeftToe
				{
					OFFSET -0.000001 12.539529 -6.151390
					CHANNELS 3 Yrotation Xrotation Zrotation
					End Site
					{
						OFFSET -0.000001 5.044994 -1.291870
					}
				}
			}
		}
	}
}
MOTION
Frames: 12
Frame Time: 0.016667
10.794249 3.975374 82.783394 -8.966290 -5.421608 -118.198227 -1.048543 -6.662451 -0.270289 -0.473160 -2.956710 -0.157856 -0.473160 -2.956709 -0.157853 -0.355555 -2.217411 -0.120654 -0.280927 -25.548198 3.347990 0.280306 -11.304206 5.918838 2.146335 -0.753161 2.644646 70.112247 -31.588092 38.967985 11.991613 10.659698 9.410149 -44.082130 22.054734 26.072919 -10.735110 -1.477206 -8.489625 -56.707864 -20.344524 -32.856823 9.502401 -24.348438 4.195740 53.719677 -6.183179 -78.627922 -0.527646 -8.546304 0.557311 0.835488 -11.030555 0.766218 0.383116 9.130834 4.917062 0.152831 0.046986 0.049623 0.185734 -12.099555 2.820148 -0.005036 -6.665810 6.986709 0.061368 8.677939 -1.078627 0.045678 -0.057727 -0.048676 
10.818117 3.975369 82.777237 -9.048846 -5.380237 -117.989892 -1.040689 -6.649413 -0.193701 -0.468253 -2.950937 -0.126123 -0.468253 -2.950938 -0.126122 -0.351721 -2.213109 -0.096836 -0.358619 -25.550250 3.707862 0.225048 -11.315476 6.543947 2.145387 -0.700753 2.736724 70.167790 -31.718514 38.884523 15.019987 12.544908 11.387231 -44.849095 23.441013 24.184966 -10.744904 -1.445798 -8.395131 -56.266934 -20.138172 -32.457465 9.815204 -24.390874 4.560808 54.018501 -7.464364 -77.606645 -0.584504 -8.584440 0.519877 0.884647 -11.150963 0.693515 0.328912 9.220587 4.818722 0.151918 0.051524 0.054104 0.141035 -12.157163 2.717938 0.007795 -6.635135 6.922014 0.053087 8.657947 -1.092557 0.044683 -0.058796 -0.052508 
10.841468 3.976681 82.770027 -9.129370 -5.336816 -117.783716 -1.042865 -6.637749 -0.112124 -0.467066 -2.945904 -0.092865 -0.467066 -2.945905 -0.092866 -0.350671 -2.209359 -0.071887 -0.424802 -25.550199 4.055149 0.187390 -11.323543 7.149293 2.156744 -0.648439 2.850224 70.104153 -31.909151 38.833696 18.205932 14.215849 13.546486 -45.574335 24.879613 22.378013 -10.719203 -1.431897 -8.265306 -55.813116 -19.868317 -32.083516 10.006964 -24.475720 4.806924 54.354622 -8.573609 -76.759189 -0.649861 -8.612673 0.479235 0.948027 -11.285476 0.625009 0.266028 9.316620 4.728006 0.152569 0.055715 0.057271 0.099285 -12.211113 2.616250 0.012167 -6.607134 6.879254 0.046411 8.641548 -1.131498 0.043176 -0.062129 -0.056668 
10.865695 3.977958 82.762085 -9.205095 -5.287563 -117.577349 -1.046606 -6.650837 -0.027902 -0.467077 -2.951158 -0.058414 -0.467076 -2.951158 -0.058411 -0.350512 -2.213325 -0.046057 -0.478485 -25.532970 4.379880 0.167637 -11.300258 7.717517 2.161909 -0.565434 2.965951 70.006912 -32.088130 38.802202 21.488055 15.546887 15.823177 -46.171519 26.441718 20.655706 -10.691587 -1.352206 -8.149783 -55.268289 -19.715051 -31.695267 10.142232 -24.524680 4.909339 54.602861 -9.651058 -75.779282 -0.713768 -8.631267 0.438593 1.007211 -11.427105 0.550158 0.206163 9.416527 4.617877 0.152319 0.058992 0.060276 0.057581 -12.257183 2.514965 0.012680 -6.583208 6.842892 0.035014 8.626901 -1.185686 0.045456 -0.065183 -0.060056 
10.889547 3.977564 82.754227 -9.270629 -5.228675 -117.375052 -1.047180 -6.650578 0.055308 -0.466364 -2.950611 -0.023984 -0.466365 -2.950611 -0.023981 -0.349812 -2.212941 -0.020238 -0.529101 -25.521521 4.688320 0.149261 -11.287829 8.257264 2.160551 -0.477484 3.092653 69.927948 -32.240733 38.769185 24.759861 16.472495 18.093005 -46.573984 27.930290 18.955553 -10.662366 -1.274381 -8.026166 -54.650403 -19.735505 -31.306449 10.308913 -24.536270 4.978430 54.776591 -10.810406 -74.704033 -0.778042 -8.631489 0.403646 1.060351 -11.580818 0.463755 0.150937 9.520588 4.512251 0.152397 0.063721 0.063495 0.012766 -12.293615 2.424865 0.014281 -6.553632 6.804250 0.014467 8.606779 -1.236837 0.052688 -0.066190 -0.062994 
10.914933 3.975660 82.747169 -9.340361 -5.166091 -117.172127 -1.040252 -6.632975 0.137804 -0.462369 -2.942872 0.010314 -0.462368 -2.942873 0.010320 -0.346651 -2.207163 0.005506 -0.582543 -25.526773 4.981315 0.121244 -11.306074 8.768514 2.141167 -0.413003 3.220928 69.833869 -32.401984 38.783453 28.039882 17.135462 20.286647 -46.895877 29.325694 17.219301 -10.661844 -1.206191 -7.949112 -54.039197 -19.748474 -30.877188 10.464520 -24.514970 5.091315 54.833626 -11.903643 -73.733429 -0.849886 -8.632902 0.355002 1.111619 -11.741292 0.395975 0.100688 9.627147 4.435987 0.149445 0.069998 0.065218 -0.032785 -12.337051 2.342379 0.015294 -6.516026 6.746944 -0.010540 8.578639 -1.301155 0.061181 -0.063835 -0.065016 
10.941946 3.975554 82.740570 -9.409433 -5.101699 -116.969134 -1.020869 -6.625604 0.224842 -0.452164 -2.940443 0.046487 -0.452164 -2.940444 0.046488 -0.338825 -2.205369 0.032680 -0.643473 -25.524159 5.254309 0.075613 -11.308765 9.242383 2.089539 -0.318029 3.335697 69.648873 -32.606326 38.924568 31.507762 17.756542 22.446781 -47.379923 30.728178 15.437122 -10.689617 -1.117446 -7.899507 -53.529883 -19.589966 -30.423797 10.608214 -24.605943 5.212238 54.802272 -12.908205 -72.867135 -0.923615 -8.635070 0.298140 1.160241 -11.897582 0.356472 0.052070 9.730807 4.346151 0.144543 0.075976 0.063608 -0.081484 -12.380278 2.261272 0.014849 -6.478199 6.652894 -0.025426 8.549955 -1.335371 0.067054 -0.060571 -0.064717 
10.965827 3.977820 82.733513 -9.467782 -5.037049 -116.765376 -0.995830 -6.610660 0.320373 -0.440202 -2.934881 0.086003 -0.440202 -2.934881 0.086003 -0.329666 -2.201223 0.062372 -0.702952 -25.526990 5.511343 0.028470 -11.321220 9.687980 2.051093 -0.201580 3.471541 69.275562 -32.911287 39.196086 35.255309 18.491682 24.702376 -47.962329 32.224488 13.500525 -10.715138 -1.057225 -7.852150 -53.113101 -19.210430 -29.993304 10.645862 -24.812843 5.254566 54.671423 -13.865621 -71.957259 -0.994444 -8.635017 0.228641 1.218447 -12.031756 0.341816 -0.009806 9.819831 4.190382 0.141668 0.080501 0.063187 -0.127088 -12.402457 2.180396 0.018527 -6.459722 6.559222 -0.038138 8.531938 -1.366473 0.067932 -0.060999 -0.064292 
10.988000 3.978464 82.726257 -9.517695 -4.975984 -116.554747 -0.975626 -6.578792 0.417917 -0.430030 -2.920601 0.126954 -0.430030 -2.920601 0.126951 -0.321846 -2.190542 0.093134 -0.750723 -25.544650 5.756115 -0.001741 -11.361746 10.114130 2.021825 -0.163229 3.630079 68.815215 -33.259756 39.546433 39.145686 19.117752 27.056758 -48.481974 33.754938 11.345422 -10.734580 -1.036235 -7.780984 -52.702809 -18.749604 -29.610035 10.607484 -25.049446 5.244026 54.533152 -14.673613 -71.169499 -1.054206 -8.641998 0.133257 1.266108 -12.142966 0.313454 -0.063401 9.899798 4.073041 0.140615 0.082771 0.063398 -0.165259 -12.406428 2.085983 0.025002 -6.467250 6.498042 -0.053461 8.528749 -1.408071 0.065138 -0.063735 -0.063042 
11.015085 3.976738 82.719559 -9.562719 -4.917935 -116.333175 -0.953141 -6.533909 0.511500 -0.418336 -2.899487 0.167667 -0.418336 -2.899487 0.167671 -0.312889 -2.174731 0.123738 -0.789060 -25.574513 5.987884 -0.019149 -11.425266 10.519015 1.975290 -0.157812 3.784405 68.419057 -33.563700 39.891952 43.011586 19.393299 29.320182 -48.815857 35.113186 9.277500 -10.756384 -1.034649 -7.701900 -52.261186 -18.425021 -29.228497 10.618716 -25.273807 5.200006 54.514755 -15.443088 -70.444030 -1.101665 -8.659870 0.018930 1.311281 -12.225972 0.252491 -0.112869 9.967397 4.020165 0.138594 0.082181 0.062729 -0.199368 -12.404809 1.977552 0.037658 -6.487081 6.448157 -0.069816 8.534105 -1.448568 0.059602 -0.066371 -0.061656 
11.040918 3.972178 82.713928 -9.600759 -4.861374 -116.101400 -0.936734 -6.495438 0.617181 -0.408762 -2.882148 0.213520 -0.408762 -2.882148 0.213520 -0.305500 -2.161756 0.158178 -0.806572 -25.595506 6.197816 -0.003992 -11.473200 10.889884 1.941060 -0.084854 3.911018 68.104226 -33.847160 40.198624 46.583683 19.202455 31.365977 -48.944063 36.373670 7.404694 -10.755017 -1.014901 -7.662696 -51.733721 -18.275769 -28.893374 10.624382 -25.392507 5.130659 54.256735 -16.441210 -69.379361 -1.152746 -8.695237 -0.094290 1.357394 -12.282524 0.174179 -0.147280 10.031976 4.002248 0.135148 0.081272 0.063882 -0.224974 -12.395233 1.856550 0.056250 -6.509180 6.361265 -0.084881 8.538609 -1.483394 0.052523 -0.069542 -0.062244 
11.072604 3.967861 82.710182 -9.643390 -4.807080 -115.847959 -0.912564 -6.452158 0.735009 -0.395860 -2.862897 0.265288 -0.395860 -2.862897 0.265288 -0.295589 -2.147346 0.197069 -0.812016 -25.617039 6.380645 0.026289 -11.522063 11.215080 1.882283 -0.029023 3.994694 67.817228 -34.128850 40.560959 49.871798 18.664851 33.160469 -48.944791 37.678865 5.817137 -10.765558 -0.999356 -7.665100 -51.211372 -18.068719 -28.580375 10.520185 -25.468607 5.040747 53.863794 -17.675006 -68.188504 -1.189719 -8.750840 -0.201087 1.401427 -12.309819 0.088407 -0.182350 10.082391 3.949937 0.128376 0.080507 0.063468 -0.252577 -12.392122 1.730149 0.076686 -6.533376 6.234228 -0.085589 8.542347 -1.459779 0.043531 -0.068593 -0.061769 
